<?xml version="1.0" encoding="utf-8"?>
<!-- Generator: Adobe Illustrator 18.0.0, SVG Export Plug-In . SVG Version: 6.00 Build 0)  -->
<!DOCTYPE svg PUBLIC "-//W3C//DTD SVG 1.1//EN" "http://www.w3.org/Graphics/SVG/1.1/DTD/svg11.dtd">
<svg version="1.1" id="Layer_1" xmlns="http://www.w3.org/2000/svg" xmlns:xlink="http://www.w3.org/1999/xlink" x="0px" y="0px"
	 viewBox="0 0 35.9 31.9" enable-background="new 0 0 35.9 31.9" xml:space="preserve" fill="#5794da">
<path  d="M34,5.9H5.8C5.7,5.9,5.5,6,5.5,6.2v24.1c0,0.2,0.2,0.3,0.3,0.3H34c0.2,0,0.3-0.2,0.3-0.3V6.2
	C34.4,6,34.2,5.9,34,5.9L34,5.9z M12.8,11.7L12.8,11.7c1.1,0,2.1,0.9,2.1,2.1c0,1.1-0.9,2.1-2.1,2.1c-1.2,0-2.1-0.9-2.1-2.1
	C10.7,12.6,11.6,11.7,12.8,11.7L12.8,11.7z M11,25.7L11,25.7l2.6-5.9l3.2,3.1l3.7-5.8l4.9,5.2l4.3-8.9l0.9,12.4H11z M3.2,24.5
	L3.2,24.5h1.7v1.9H1.2c-0.2,0-0.3-0.2-0.3-0.3V2c0-0.2,0.2-0.3,0.3-0.3h28.2c0.2,0,0.3,0.2,0.3,0.3v3.2h-2.1V3.9
	c0-0.2-0.1-0.3-0.3-0.3H3.2C3,3.7,2.9,3.7,2.9,3.9v20.3C2.9,24.5,3,24.5,3.2,24.5L3.2,24.5z"/>
</svg>
