<svg width="44" height="40" viewBox="0 0 44 40" stroke="black" fill="none" xmlns="http://www.w3.org/2000/svg">
<rect x="1.5" y="1.5" width="27" height="37" rx="1.5"  stroke-width="3"/>
<rect x="7" y="22" width="7" height="11" rx="2"  stroke-width="2"/>
<line x1="7" y1="8" x2="23" y2="8"  stroke-width="2" stroke-linecap="round"/>
<line x1="7" y1="13" x2="23" y2="13"  stroke-width="2" stroke-linecap="round"/>
<line x1="7" y1="18" x2="23" y2="18"  stroke-width="2" stroke-linecap="round"/>
<line x1="7" y1="28" x2="14" y2="28"  stroke-width="2"/>
<path d="M36.5 15.5371C36.5 15.5202 36.5006 15.5098 36.501 15.5037C36.5015 15.4979 36.5021 15.4934 36.5028 15.4889C36.5842 15.0067 36.8958 13.2928 37.4771 11.5127C37.768 10.6222 38.1138 9.75444 38.511 9.03081C38.8303 8.44895 39.1437 8.03312 39.4288 7.76657C39.7683 8.09392 40.1181 8.57318 40.4605 9.19724C40.8651 9.93482 41.2148 10.792 41.5078 11.6564C42.094 13.3859 42.4104 15.0157 42.4967 15.4952C42.4979 15.5018 42.5 15.515 42.5 15.5466V38C42.5 38.2761 42.2761 38.5 42 38.5H37C36.7239 38.5 36.5 38.2761 36.5 38V15.5371Z" stroke-width="3"/>
<line x1="37" y1="17" x2="42" y2="17"  stroke-width="2"/>
<line x1="37" y1="33" x2="42" y2="33"  stroke-width="2"/>
</svg>
