<svg width="40" height="40" viewBox="0 0 40 40" stroke="black" fill="none" xmlns="http://www.w3.org/2000/svg">
<path d="M30.0003 11.9333C29.9003 11.9167 29.7836 11.9167 29.6836 11.9333C27.3836 11.85 25.5503 9.96665 25.5503 7.63332C25.5503 5.24998 27.467 3.33331 29.8503 3.33331C32.2336 3.33331 34.1503 5.26665 34.1503 7.63332C34.1336 9.96665 32.3003 11.85 30.0003 11.9333Z"  stroke-width="3" stroke-linecap="round" stroke-linejoin="round"/>
<path d="M28.2834 24.0667C30.5667 24.4501 33.0834 24.0501 34.8501 22.8667C37.2001 21.3001 37.2001 18.7334 34.8501 17.1667C33.0667 15.9834 30.5167 15.5834 28.2334 15.9834"  stroke-width="3" stroke-linecap="round" stroke-linejoin="round"/>
<path d="M9.94981 11.9333C10.0498 11.9167 10.1665 11.9167 10.2665 11.9333C12.5665 11.85 14.3998 9.96665 14.3998 7.63332C14.3998 5.24998 12.4831 3.33331 10.0998 3.33331C7.71647 3.33331 5.7998 5.26665 5.7998 7.63332C5.81647 9.96665 7.64981 11.85 9.94981 11.9333Z"  stroke-width="3" stroke-linecap="round" stroke-linejoin="round"/>
<path d="M11.6666 24.0667C9.38323 24.4501 6.86657 24.0501 5.0999 22.8667C2.7499 21.3001 2.7499 18.7334 5.0999 17.1667C6.88324 15.9834 9.43323 15.5834 11.7166 15.9834"  stroke-width="3" stroke-linecap="round" stroke-linejoin="round"/>
<path d="M20.0003 24.3835C19.9003 24.3668 19.7836 24.3668 19.6836 24.3835C17.3836 24.3001 15.5503 22.4168 15.5503 20.0835C15.5503 17.7001 17.467 15.7834 19.8503 15.7834C22.2336 15.7834 24.1503 17.7168 24.1503 20.0835C24.1336 22.4168 22.3003 24.3168 20.0003 24.3835Z"  stroke-width="3" stroke-linecap="round" stroke-linejoin="round"/>
<path d="M15.1502 29.6335C12.8002 31.2002 12.8002 33.7669 15.1502 35.3335C17.8169 37.1169 22.1835 37.1169 24.8502 35.3335C27.2002 33.7669 27.2002 31.2002 24.8502 29.6335C22.2002 27.8669 17.8169 27.8669 15.1502 29.6335Z"  stroke-width="3" stroke-linecap="round" stroke-linejoin="round"/>
</svg>
