<svg width="50" height="50" viewBox="0 0 50 50" stroke="black" fill="none" xmlns="http://www.w3.org/2000/svg">
<path d="M45.8332 34.875V9.72917C45.8332 7.22917 43.7915 5.37501 41.3123 5.58334H41.1873C36.8123 5.95834 30.1665 8.18751 26.4582 10.5208L26.104 10.75C25.4998 11.125 24.4998 11.125 23.8957 10.75L23.3748 10.4375C19.6665 8.12501 13.0415 5.91667 8.6665 5.56251C6.18734 5.35417 4.1665 7.22917 4.1665 9.70834V34.875C4.1665 36.875 5.7915 38.75 7.7915 39L8.39567 39.0833C12.9165 39.6875 19.8957 41.9792 23.8957 44.1667L23.979 44.2083C24.5415 44.5208 25.4373 44.5208 25.979 44.2083C29.979 42 36.979 39.6875 41.5207 39.0833L42.2082 39C44.2082 38.75 45.8332 36.875 45.8332 34.875Z" stroke-width="3" stroke-linecap="round" stroke-linejoin="round"/>
<path d="M25 11.4375V42.6875"  stroke-width="3" stroke-linecap="round" stroke-linejoin="round"/>
<path d="M16.146 17.6875H11.4585" stroke-width="3" stroke-linecap="round" stroke-linejoin="round"/>
<path d="M17.7085 23.9375H11.4585"  stroke-width="3" stroke-linecap="round" stroke-linejoin="round"/>
</svg>
