<svg width="40" height="40" viewBox="0 0 40 40" fill="none" xmlns="http://www.w3.org/2000/svg">
<path d="M7.99961 12.4L5.19961 7.73335L7.06627 5.86668L11.7329 8.66668V10.5333L16.5329 15.3333C16.5329 15.4667 16.5329 15.6 16.5329 15.7333L14.7996 17.3333L9.86627 12.4H7.99961ZM27.9996 23.7333C27.5996 23.7333 27.3329 23.7333 26.9329 23.7333C25.9996 23.7333 25.1996 23.6 24.3996 23.4667L21.5996 26.6667L27.8663 33.7333C29.3329 35.3333 31.8663 35.4667 33.3329 33.8667C34.9329 32.2667 34.7996 29.8667 33.1996 28.4L27.9996 23.7333ZM32.5329 18.6667C34.6663 16.5333 35.3329 13.3333 34.5329 10.5333C34.3996 10 33.7329 9.86668 33.4663 10.2667L28.7996 14.9333L25.0663 11.2L29.7329 6.53335C30.1329 6.13335 29.9996 5.60002 29.4663 5.46668C26.6663 4.53335 23.4663 5.20002 21.3329 7.46668C18.9329 9.86668 18.3996 13.6 19.7329 16.5333L6.39961 28.4C4.79961 29.8667 4.66627 32.4 6.26627 33.8667C7.86627 35.4667 10.2663 35.3333 11.7329 33.7333L23.5996 20.4C26.5329 21.7333 30.1329 21.2 32.5329 18.6667Z" fill="#5794DA" fill-opacity="0.5"/>
</svg>
