<svg width="350" height="150" viewBox="0 0 350 150" fill="none" xmlns="http://www.w3.org/2000/svg">
<path d="M320 41.6666H330C338.333 41.6666 341.666 38.3332 341.666 29.9999V19.9999C341.666 11.6666 338.333 8.33325 330 8.33325H320C311.666 8.33325 308.333 11.6666 308.333 19.9999V29.9999C308.333 38.3332 311.666 41.6666 320 41.6666Z" stroke="#D8E1EC" stroke-width="3" stroke-linecap="round" stroke-linejoin="round"/>
<path d="M321.875 35.4166H328.125C333.333 35.4166 335.416 33.3333 335.416 28.1249V21.8749C335.416 16.6666 333.333 14.5833 328.125 14.5833H321.875C316.666 14.5833 314.583 16.6666 314.583 21.8749V28.1249C314.583 33.3333 316.666 35.4166 321.875 35.4166Z" stroke="#D8E1EC" stroke-width="3" stroke-linecap="round" stroke-linejoin="round"/>
<path d="M316.688 8.33329V4.16663" stroke="#D8E1EC" stroke-width="3" stroke-linecap="round" stroke-linejoin="round"/>
<path d="M325 8.33329V4.16663" stroke="#D8E1EC" stroke-width="3" stroke-linecap="round" stroke-linejoin="round"/>
<path d="M333.333 8.33342V4.16675" stroke="#D8E1EC" stroke-width="3" stroke-linecap="round" stroke-linejoin="round"/>
<path d="M341.667 16.6667H345.834" stroke="#D8E1EC" stroke-width="3" stroke-linecap="round" stroke-linejoin="round"/>
<path d="M341.667 25H345.834" stroke="#D8E1EC" stroke-width="3" stroke-linecap="round" stroke-linejoin="round"/>
<path d="M341.667 33.3333H345.834" stroke="#D8E1EC" stroke-width="3" stroke-linecap="round" stroke-linejoin="round"/>
<path d="M333.333 41.6667V45.8334" stroke="#D8E1EC" stroke-width="3" stroke-linecap="round" stroke-linejoin="round"/>
<path d="M325.021 41.6667V45.8334" stroke="#D8E1EC" stroke-width="3" stroke-linecap="round" stroke-linejoin="round"/>
<path d="M316.688 41.6666V45.8333" stroke="#D8E1EC" stroke-width="3" stroke-linecap="round" stroke-linejoin="round"/>
<path d="M304.167 16.6667H308.334" stroke="#D8E1EC" stroke-width="3" stroke-linecap="round" stroke-linejoin="round"/>
<path d="M304.167 25H308.334" stroke="#D8E1EC" stroke-width="3" stroke-linecap="round" stroke-linejoin="round"/>
<path d="M304.167 33.3333H308.334" stroke="#D8E1EC" stroke-width="3" stroke-linecap="round" stroke-linejoin="round"/>
<path d="M313.417 104.167H336.563C343.979 104.167 345.834 106.021 345.834 113.417V126.604C345.834 134.021 343.979 135.854 336.584 135.854H313.417C306.021 135.875 304.167 134.021 304.167 126.625V113.417C304.167 106.021 306.021 104.167 313.417 104.167Z" stroke="#D8E1EC" stroke-width="3" stroke-linecap="round" stroke-linejoin="round"/>
<path d="M325 135.875V145.833" stroke="#D8E1EC" stroke-width="3" stroke-linecap="round" stroke-linejoin="round"/>
<path d="M304.167 127.083H345.834" stroke="#D8E1EC" stroke-width="3" stroke-linecap="round" stroke-linejoin="round"/>
<path d="M315.625 145.833H334.375" stroke="#D8E1EC" stroke-width="3" stroke-linecap="round" stroke-linejoin="round"/>
<path d="M120 41.6666H130C138.333 41.6666 141.666 38.3332 141.666 29.9999V19.9999C141.666 11.6666 138.333 8.33325 130 8.33325H120C111.666 8.33325 108.333 11.6666 108.333 19.9999V29.9999C108.333 38.3332 111.666 41.6666 120 41.6666Z" stroke="#D8E1EC" stroke-width="3" stroke-linecap="round" stroke-linejoin="round"/>
<path d="M121.875 35.4166H128.125C133.333 35.4166 135.416 33.3333 135.416 28.1249V21.8749C135.416 16.6666 133.333 14.5833 128.125 14.5833H121.875C116.666 14.5833 114.583 16.6666 114.583 21.8749V28.1249C114.583 33.3333 116.666 35.4166 121.875 35.4166Z" stroke="#D8E1EC" stroke-width="3" stroke-linecap="round" stroke-linejoin="round"/>
<path d="M116.688 8.33329V4.16663" stroke="#D8E1EC" stroke-width="3" stroke-linecap="round" stroke-linejoin="round"/>
<path d="M125 8.33329V4.16663" stroke="#D8E1EC" stroke-width="3" stroke-linecap="round" stroke-linejoin="round"/>
<path d="M133.333 8.33342V4.16675" stroke="#D8E1EC" stroke-width="3" stroke-linecap="round" stroke-linejoin="round"/>
<path d="M141.667 16.6667H145.834" stroke="#D8E1EC" stroke-width="3" stroke-linecap="round" stroke-linejoin="round"/>
<path d="M141.667 25H145.834" stroke="#D8E1EC" stroke-width="3" stroke-linecap="round" stroke-linejoin="round"/>
<path d="M141.667 33.3333H145.834" stroke="#D8E1EC" stroke-width="3" stroke-linecap="round" stroke-linejoin="round"/>
<path d="M133.333 41.6667V45.8334" stroke="#D8E1EC" stroke-width="3" stroke-linecap="round" stroke-linejoin="round"/>
<path d="M125.021 41.6667V45.8334" stroke="#D8E1EC" stroke-width="3" stroke-linecap="round" stroke-linejoin="round"/>
<path d="M116.688 41.6666V45.8333" stroke="#D8E1EC" stroke-width="3" stroke-linecap="round" stroke-linejoin="round"/>
<path d="M104.167 16.6667H108.334" stroke="#D8E1EC" stroke-width="3" stroke-linecap="round" stroke-linejoin="round"/>
<path d="M104.167 25H108.334" stroke="#D8E1EC" stroke-width="3" stroke-linecap="round" stroke-linejoin="round"/>
<path d="M104.167 33.3333H108.334" stroke="#D8E1EC" stroke-width="3" stroke-linecap="round" stroke-linejoin="round"/>
<path d="M113.417 104.167H136.563C143.979 104.167 145.834 106.021 145.834 113.417V126.604C145.834 134.021 143.979 135.854 136.584 135.854H113.417C106.021 135.875 104.167 134.021 104.167 126.625V113.417C104.167 106.021 106.021 104.167 113.417 104.167Z" stroke="#D8E1EC" stroke-width="3" stroke-linecap="round" stroke-linejoin="round"/>
<path d="M125 135.875V145.833" stroke="#D8E1EC" stroke-width="3" stroke-linecap="round" stroke-linejoin="round"/>
<path d="M104.167 127.083H145.834" stroke="#D8E1EC" stroke-width="3" stroke-linecap="round" stroke-linejoin="round"/>
<path d="M115.625 145.833H134.375" stroke="#D8E1EC" stroke-width="3" stroke-linecap="round" stroke-linejoin="round"/>
<path d="M219.937 25.9583L213.583 32.3124" stroke="#D8E1EC" stroke-width="3" stroke-miterlimit="10" stroke-linecap="round" stroke-linejoin="round"/>
<path d="M213.646 26.0208L220 32.3749" stroke="#D8E1EC" stroke-width="3" stroke-miterlimit="10" stroke-linecap="round" stroke-linejoin="round"/>
<path d="M228.188 29.1666H228.208" stroke="#D8E1EC" stroke-width="3" stroke-miterlimit="10" stroke-linecap="round" stroke-linejoin="round"/>
<path d="M236.396 29.1667H236.416" stroke="#D8E1EC" stroke-width="3" stroke-miterlimit="10" stroke-linecap="round" stroke-linejoin="round"/>
<path d="M232.292 33.2917V33.25" stroke="#D8E1EC" stroke-width="3" stroke-miterlimit="10" stroke-linecap="round" stroke-linejoin="round"/>
<path d="M232.292 25.0834V25.0417" stroke="#D8E1EC" stroke-width="3" stroke-miterlimit="10" stroke-linecap="round" stroke-linejoin="round"/>
<path d="M218.75 45.8333H231.25C241.667 45.8333 245.834 41.6667 245.834 31.25V27.0833C245.834 16.6667 241.667 12.5 231.25 12.5H218.75C208.334 12.5 204.167 16.6667 204.167 27.0833V31.25C204.167 41.6667 208.334 45.8333 218.75 45.8333Z" stroke="#D8E1EC" stroke-width="3" stroke-linecap="round" stroke-linejoin="round"/>
<path d="M227.104 4.16663L227.083 6.27079C227.062 7.41663 226.146 8.33329 225 8.33329H224.938C223.792 8.33329 222.875 9.27079 222.875 10.4166C222.875 11.5625 223.812 12.5 224.958 12.5H227.042" stroke="#D8E1EC" stroke-width="3" stroke-linecap="round" stroke-linejoin="round"/>
<path d="M225 145.833C233.604 145.833 240.625 138.812 240.625 130.208V119.792C240.625 111.187 233.604 104.167 225 104.167C216.396 104.167 209.375 111.187 209.375 119.792V130.208C209.375 138.812 216.396 145.833 225 145.833Z" stroke="#D8E1EC" stroke-width="3" stroke-linecap="round" stroke-linejoin="round"/>
<path d="M225 122.917C223.271 122.917 221.875 121.521 221.875 119.792V115.625C221.875 113.896 223.271 112.5 225 112.5C226.708 112.5 228.125 113.896 228.125 115.625V119.792C228.125 121.521 226.708 122.917 225 122.917Z" stroke="#D8E1EC" stroke-width="3" stroke-linecap="round" stroke-linejoin="round"/>
<path d="M225 112.5V104.167" stroke="#D8E1EC" stroke-width="3" stroke-linecap="round" stroke-linejoin="round"/>
<path d="M19.9372 25.9583L13.583 32.3124" stroke="#D8E1EC" stroke-width="3" stroke-miterlimit="10" stroke-linecap="round" stroke-linejoin="round"/>
<path d="M13.6455 26.0208L19.9997 32.3749" stroke="#D8E1EC" stroke-width="3" stroke-miterlimit="10" stroke-linecap="round" stroke-linejoin="round"/>
<path d="M28.1875 29.1666H28.2083" stroke="#D8E1EC" stroke-width="3" stroke-miterlimit="10" stroke-linecap="round" stroke-linejoin="round"/>
<path d="M36.3955 29.1667H36.4163" stroke="#D8E1EC" stroke-width="3" stroke-miterlimit="10" stroke-linecap="round" stroke-linejoin="round"/>
<path d="M32.292 33.2917V33.25" stroke="#D8E1EC" stroke-width="3" stroke-miterlimit="10" stroke-linecap="round" stroke-linejoin="round"/>
<path d="M32.292 25.0834V25.0417" stroke="#D8E1EC" stroke-width="3" stroke-miterlimit="10" stroke-linecap="round" stroke-linejoin="round"/>
<path d="M18.7503 45.8333H31.2503C41.667 45.8333 45.8337 41.6667 45.8337 31.25V27.0833C45.8337 16.6667 41.667 12.5 31.2503 12.5H18.7503C8.33366 12.5 4.16699 16.6667 4.16699 27.0833V31.25C4.16699 41.6667 8.33366 45.8333 18.7503 45.8333Z" stroke="#D8E1EC" stroke-width="3" stroke-linecap="round" stroke-linejoin="round"/>
<path d="M27.1042 4.16663L27.0833 6.27079C27.0625 7.41663 26.1458 8.33329 25 8.33329H24.9375C23.7917 8.33329 22.875 9.27079 22.875 10.4166C22.875 11.5625 23.8125 12.5 24.9583 12.5H27.0417" stroke="#D8E1EC" stroke-width="3" stroke-linecap="round" stroke-linejoin="round"/>
<path d="M25 145.833C33.6042 145.833 40.625 138.812 40.625 130.208V119.792C40.625 111.187 33.6042 104.167 25 104.167C16.3958 104.167 9.375 111.187 9.375 119.792V130.208C9.375 138.812 16.3958 145.833 25 145.833Z" stroke="#D8E1EC" stroke-width="3" stroke-linecap="round" stroke-linejoin="round"/>
<path d="M25 122.917C23.2708 122.917 21.875 121.521 21.875 119.792V115.625C21.875 113.896 23.2708 112.5 25 112.5C26.7083 112.5 28.125 113.896 28.125 115.625V119.792C28.125 121.521 26.7083 122.917 25 122.917Z" stroke="#D8E1EC" stroke-width="3" stroke-linecap="round" stroke-linejoin="round"/>
<path d="M25 112.5V104.167" stroke="#D8E1EC" stroke-width="3" stroke-linecap="round" stroke-linejoin="round"/>
</svg>
