<svg width="32" height="32" viewBox="0 0 32 32" fill="#ff0000c4" xmlns="http://www.w3.org/2000/svg">
<path d="M16 28.72C15.6045 28.721 15.2127 28.6437 14.8471 28.4927C14.4816 28.3417 14.1495 28.1199 13.87 27.84L3.56999 17.54C2.75632 16.7175 2.11448 15.7413 1.68183 14.6683C1.24919 13.5953 1.0344 12.4469 1.04999 11.29C1.05783 10.2299 1.27474 9.18166 1.68832 8.20547C2.10189 7.22927 2.70399 6.34426 3.46013 5.60112C4.21627 4.85798 5.1116 4.27133 6.09482 3.87475C7.07804 3.47817 8.12985 3.27947 9.18999 3.29002C10.2691 3.27915 11.3394 3.4851 12.3374 3.89564C13.3355 4.30619 14.2409 4.91298 15 5.68002L16 6.68002L16.82 5.86002C18.2359 4.40659 20.1306 3.51553 22.1531 3.3519C24.1756 3.18826 26.1888 3.76312 27.82 4.97002C28.7485 5.68507 29.514 6.58974 30.0656 7.62378C30.6171 8.65782 30.942 9.79751 31.0187 10.9669C31.0953 12.1364 30.9219 13.3087 30.51 14.4059C30.0982 15.5031 29.4572 16.4999 28.63 17.33L18.13 27.84C17.8505 28.1199 17.5184 28.3417 17.1529 28.4927C16.7873 28.6437 16.3955 28.721 16 28.72ZM9.14999 5.28002C7.56051 5.2784 6.03275 5.89524 4.88999 7.00002C4.30738 7.56056 3.84407 8.23307 3.52788 8.97715C3.21169 9.72123 3.04914 10.5215 3.04999 11.33C3.04122 12.2193 3.20907 13.1015 3.5438 13.9255C3.87854 14.7495 4.3735 15.4988 4.99999 16.13L15.3 26.43C15.3929 26.5238 15.5035 26.5981 15.6254 26.6489C15.7473 26.6997 15.878 26.7258 16.01 26.7258C16.142 26.7258 16.2727 26.6997 16.3946 26.6489C16.5164 26.5981 16.627 26.5238 16.72 26.43L27.23 15.91C27.8469 15.2801 28.3236 14.5267 28.6286 13.6994C28.9337 12.8721 29.0602 11.9897 29 11.11C28.9466 10.2213 28.7018 9.35468 28.2824 8.56937C27.863 7.78406 27.2789 7.09864 26.57 6.56002C25.3261 5.64291 23.7913 5.20928 22.2514 5.3399C20.7115 5.47052 19.2716 6.1565 18.2 7.27002L16.71 8.80002C16.617 8.89375 16.5064 8.96814 16.3846 9.01891C16.2627 9.06968 16.132 9.09582 16 9.09582C15.868 9.09582 15.7373 9.06968 15.6154 9.01891C15.4935 8.96814 15.3829 8.89375 15.29 8.80002L13.59 7.10002C12.4191 5.9393 10.8387 5.28559 9.18999 5.28002H9.14999Z" />
<path d="M4.50001 5.50002C6.39059 3.60926 9.99988 4.00003 15.9999 7.50001C20.9999 3.50002 26.2363 4.97271 26.5 5.50002C26.5 5.50002 30.9999 10 29.9999 14C28.9999 18 22.5 22 22.5 22C22.5 22 18.7335 27.6953 15.9999 27.5C13.2662 27.3047 8.50001 21 8.50001 21C8.50001 21 3.0076 16.8721 2.50001 13C2.10602 9.99445 0.500373 9.50003 4.50001 5.50002Z" />
</svg>
