<svg width="32" height="32" viewBox="0 0 32 32" fill="#101820"  xmlns="http://www.w3.org/2000/svg">
<path d="M16 28.72C15.6045 28.721 15.2127 28.6437 14.8471 28.4927C14.4816 28.3417 14.1495 28.1198 13.87 27.84L3.56999 17.54C2.75632 16.7175 2.11448 15.7413 1.68183 14.6683C1.24919 13.5952 1.0344 12.4468 1.04999 11.29C1.05783 10.2298 1.27474 9.18163 1.68832 8.20544C2.10189 7.22924 2.70399 6.34423 3.46013 5.60109C4.21627 4.85795 5.1116 4.2713 6.09482 3.87472C7.07804 3.47814 8.12985 3.27944 9.18999 3.28999C10.2691 3.27912 11.3394 3.48507 12.3374 3.89561C13.3355 4.30616 14.2409 4.91295 15 5.67999L16 6.67999L16.82 5.85999C18.2359 4.40656 20.1306 3.5155 22.1531 3.35186C24.1756 3.18823 26.1888 3.76309 27.82 4.96999C28.7485 5.68504 29.514 6.58971 30.0656 7.62375C30.6171 8.65779 30.942 9.79748 31.0187 10.9669C31.0953 12.1363 30.9219 13.3087 30.51 14.4059C30.0982 15.503 29.4572 16.4999 28.63 17.33L18.13 27.84C17.8505 28.1198 17.5184 28.3417 17.1529 28.4927C16.7873 28.6437 16.3955 28.721 16 28.72ZM9.14999 5.27999C7.56051 5.27837 6.03275 5.89521 4.88999 6.99999C4.30738 7.56053 3.84407 8.23304 3.52788 8.97712C3.21169 9.7212 3.04914 10.5215 3.04999 11.33C3.04122 12.2193 3.20907 13.1015 3.5438 13.9255C3.87854 14.7494 4.3735 15.4987 4.99999 16.13L15.3 26.43C15.3929 26.5237 15.5035 26.5981 15.6254 26.6489C15.7473 26.6996 15.878 26.7258 16.01 26.7258C16.142 26.7258 16.2727 26.6996 16.3946 26.6489C16.5164 26.5981 16.627 26.5237 16.72 26.43L27.23 15.91C27.8469 15.28 28.3236 14.5267 28.6286 13.6994C28.9337 12.8721 29.0602 11.9897 29 11.11C28.9466 10.2213 28.7018 9.35465 28.2824 8.56934C27.863 7.78403 27.2789 7.09861 26.57 6.55999C25.3261 5.64288 23.7913 5.20925 22.2514 5.33987C20.7115 5.47049 19.2716 6.15647 18.2 7.26999L16.71 8.79999C16.617 8.89372 16.5064 8.96811 16.3846 9.01888C16.2627 9.06965 16.132 9.09579 16 9.09579C15.868 9.09579 15.7373 9.06965 15.6154 9.01888C15.4935 8.96811 15.3829 8.89372 15.29 8.79999L13.59 7.09999C12.4191 5.93927 10.8387 5.28556 9.18999 5.27999H9.14999Z" />
</svg>
